PathFileType	4	(X/Y/Z)	C:\Users\WrightLab\Desktop\Jo\P5V120.trc
DataRate	CameraRate	NumFrames	NumMarkers	Units	OrigDataRate	OrigDataStartFrame	OrigNumFrames
100.00	100.00	       17	19	mm	100.00	237	       630
Frame#	Time	Headset_Front			Headset_Back			Headset_Left			Headset_Right			Left_Shoulder			Right_Shoulder			Sternum			C7			Left Elbow			Right Elbow			Left Wrist			Right Wrist			Left ASIS			Right ASIS			S2			Left Knee			Right Knee			Left Ankle			Right Ankle			
		X1	Y1	Z1	X2	Y2	Z2	X3	Y3	Z3	X4	Y4	Z4	X5	Y5	Z5	X6	Y6	Z6	X7	Y7	Z7	X8	Y8	Z8	X9	Y9	Z9	X10	Y10	Z10	X11	Y11	Z11	X12	Y12	Z12	X13	Y13	Z13	X14	Y14	Z14	X15	Y15	Z15	X16	Y16	Z16	X17	Y17	Z17	X18	Y18	Z18	X19	Y19	Z19	

237	2.360	251.02502	1473.92822	221.98994	124.74475	1629.51904	295.02689				347.47537	1554.65796	309.88513	33.35294	1456.17725	342.17560	353.52536	1491.70764	594.27130	281.18463	1328.39758	424.56250	120.34243	1536.26501	561.52942	-78.64092	1197.53577	277.93140	393.08493	1249.53088	745.83362	-54.81696	1061.82288	82.72594	489.43967	1082.29688	602.83813	231.75070	944.38464	341.35147	361.47601	975.51385	580.96655	65.88819	1000.98444	577.22437	241.71599	514.32385	344.62036	299.43472	496.07239	645.01740	216.42256	104.53080	448.77881	23.00068	220.38036	738.84985	
238	2.370	254.24110	1473.33521	218.22189	128.35405	1628.64746	290.96774				350.92728	1554.16565	304.15350	39.20290	1454.52527	339.53052	358.25024	1493.71436	590.46191	287.01346	1329.04053	421.33896	125.32109	1536.67676	557.99750	-72.63184	1197.63623	270.55643	398.51892	1251.28491	742.64734	-53.78612	1058.92615	75.74431	496.22495	1084.84753	598.68298	238.46854	944.30194	338.91888	369.93442	977.07416	578.63654	73.07288	1001.57819	574.39801	246.94432	515.13086	339.66614	321.69000	497.16153	636.93457	216.88579	104.70119	449.42676	40.77670	227.18887	736.95630	
239	2.380	257.38940	1472.83850	214.05356	132.09744	1628.09583	286.73395				354.32401	1553.53491	298.88623	44.71925	1453.61890	335.81070	363.17349	1495.63074	586.56250	293.10248	1329.45337	418.40216	130.72740	1536.90491	553.67914	-66.67329	1197.24487	264.15063	406.78259	1254.34485	738.19598	-53.43407	1056.78552	69.37284	502.90311	1087.33154	594.81329	244.76790	944.19940	335.55551	379.29053	978.61066	575.52222	80.12901	1002.38837	571.62897	251.30855	515.58502	334.82809	342.32224	497.63074	627.55524	217.01717	104.83871	449.50110	57.98559	234.15968	735.53729	
240	2.390	260.76736	1471.80920	210.88863	135.55959	1627.48926	282.61594				358.04413	1553.29492	294.39249	49.58364	1452.49475	333.19830	368.66739	1497.93372	583.43805	298.97324	1329.96289	415.15140	135.25046	1537.45862	549.74402	-61.35585	1198.14294	258.02426	413.40732	1256.37280	734.36420	-52.49712	1054.68640	63.79410	509.26779	1089.89783	591.31891	250.86696	943.92444	332.68085	388.40195	980.17853	573.29974	88.26657	1002.83502	568.67218	255.23944	516.55975	330.08401	363.26492	496.62521	617.56049	217.55029	104.55331	449.76538	75.74884	239.81624	733.29443	
241	2.400	263.72623	1471.49890	205.43570	138.74361	1627.18567	278.42889				361.53519	1553.16614	288.27069	55.40117	1451.65369	329.63290	374.25375	1499.78003	579.42432	304.75305	1330.92883	412.25504	140.29230	1538.20374	545.95709	-54.68855	1198.27979	251.61632	419.85464	1258.85925	730.62085	-51.64616	1052.61121	58.23209	516.02985	1092.23291	587.31598	256.92810	944.09418	330.27539	396.78738	982.24554	570.48553	94.55904	1004.02258	567.02435	258.61008	517.07349	325.56387	385.01907	495.34250	607.46912	217.94472	104.54065	449.92130	92.49377	245.70332	731.63232	
242	2.410	267.11096	1470.33411	201.90509	142.05952	1626.65527	274.47839				365.06088	1553.00098	283.33417	60.63618	1451.22742	326.45428	378.85803	1501.64343	574.71667	310.64163	1331.20422	409.77478	145.39413	1538.92639	542.13300	-49.08564	1199.10559	246.39705	425.36398	1260.85999	726.98730	-50.13276	1051.25061	53.26849	522.37714	1095.01172	583.40997	262.33420	944.04138	327.11554	405.55679	984.78162	567.77246	102.59037	1004.93610	564.88867	260.99231	518.29510	319.81238	406.40964	496.81186	596.44092	218.30211	104.84724	449.74707	112.16581	249.13245	726.76758	
243	2.420	269.99637	1470.41113	197.09277	145.71751	1625.97327	270.48911				369.07928	1552.83264	278.56866	65.30617	1451.02515	323.34363	385.10864	1503.86523	570.68323	316.02502	1332.55347	406.07230	150.52007	1539.57678	538.48871	-42.70358	1199.84546	240.42189	432.60361	1263.80859	723.08856	-49.16026	1050.22449	48.80160	528.50079	1097.58215	579.71326	268.07861	944.20093	325.09473	414.29562	986.84247	564.43341	109.70945	1006.14618	563.79785	264.19540	519.09790	314.81021	426.44147	500.12125	584.83313	218.58852	105.16505	450.19043	131.50456	252.55412	723.47937	
244	2.430	273.24942	1469.21436	193.05687	148.33383	1625.71655	266.72919				372.32294	1552.43604	274.12451	70.57673	1450.54663	319.86807	390.23416	1506.59668	567.42719	321.38885	1333.27625	403.86877	155.67700	1540.85901	534.41742	-37.41570	1200.39355	236.12640	439.47113	1266.78198	719.04669	-47.78303	1049.69714	44.98590	535.00330	1100.38806	576.57574	273.32040	944.55676	321.96881	422.69937	989.35852	562.53973	118.33194	1006.69012	562.45410	266.54669	519.61432	308.73627	446.43427	506.54742	573.72083	218.96259	105.44691	449.99634	151.01437	253.39095	717.71222	
245	2.440	276.18420	1468.92578	189.18781	152.24858	1625.37671	262.47791				375.88550	1552.51025	268.18649	75.10567	1450.82043	316.83374	396.92526	1509.23047	563.66815	327.47031	1334.05408	400.38010	160.94078	1541.38025	530.52496	-31.62447	1200.92468	231.93771	445.73901	1269.75366	716.48883	-46.70166	1048.89636	41.17358	541.40955	1102.84668	573.58234	278.39563	945.10724	320.00882	431.99655	991.69360	559.06311	125.67226	1007.85834	562.00763	268.02814	519.99139	304.33292	465.01318	513.96716	562.62531	219.31384	106.00720	450.16132	171.26591	254.30893	713.51691	
246	2.450	279.48300	1467.99121	185.80473	155.79289	1625.09583	258.53955				379.41132	1552.44568	263.12766	80.99397	1450.83630	315.48627	401.67163	1511.46350	557.86041	332.93750	1335.05420	397.03525	166.15906	1542.66040	526.77136	-26.16234	1201.84167	227.54268	452.82730	1273.10498	713.05194	-45.31643	1048.68372	37.88633	547.65131	1105.69006	570.26495	283.70560	945.96594	316.93274	441.02267	994.32300	554.67346	132.92755	1008.86792	561.96399	269.12399	520.26141	299.05820	482.02271	521.22559	551.31866	219.66081	106.47959	450.08688	191.45628	253.32542	707.96014	
247	2.460	282.45114	1467.61316	181.51723	159.21092	1624.60938	254.79990				382.77524	1552.50293	257.96658	86.15765	1450.70313	312.37347	406.89169	1513.71167	553.23499	338.64328	1335.93237	394.11658	171.66553	1543.45227	523.34442	-21.18178	1202.33252	224.53017	460.25873	1276.30115	710.06189	-44.06488	1047.84973	35.68942	554.02161	1108.32068	567.16077	288.38794	946.70697	314.84402	449.89365	996.68115	550.97388	140.60318	1010.03778	562.04633	270.23444	520.72729	294.22836	498.02606	529.07697	540.08466	219.75954	106.82894	450.03506	212.87701	250.90508	702.09460	
248	2.470	285.21585	1467.49414	176.51268	162.49529	1624.03064	251.19247				384.42325	1552.02197	252.98564	91.15054	1451.05505	309.55530	414.80475	1516.94470	549.55261	343.51242	1337.09290	391.34454	177.24931	1544.51245	519.51422	-16.19955	1202.55127	221.58586	466.78088	1279.54773	706.28735	-43.04274	1048.05823	32.98402	560.61243	1111.03223	564.20087	293.55389	947.51965	313.09476	458.70703	998.82343	548.23932	148.55193	1010.94305	562.18671	270.44009	520.50983	289.27539	513.51892	536.55621	528.56787	220.06235	106.94277	450.09344	234.54970	247.91992	696.10779	
249	2.480	288.25131	1466.69128	172.48752	165.89781	1623.69214	247.54034				389.90805	1552.09937	248.12068	95.97850	1450.64819	306.77997	419.33319	1518.20618	543.40192	348.79684	1337.32837	388.39044	182.57820	1545.23792	515.83069	-11.36188	1202.78137	218.71494	474.71912	1283.23743	703.09094	-41.34294	1047.91321	30.47004	567.13751	1113.67395	560.86127	298.12347	948.45007	311.25433	467.66025	1001.17444	544.39001	156.07727	1011.70496	562.70398	270.34036	520.68140	284.65039	527.97296	544.65131	517.79773	219.09749	107.75066	450.00909	255.74551	243.36554	689.74316	
250	2.490	291.10773	1466.46338	168.10034	169.10999	1623.14746	244.17070				393.35391	1552.14148	242.29131	101.01728	1450.43347	303.74313	425.44812	1519.24072	538.36768	354.55621	1338.19092	385.16730	188.38155	1546.06946	511.89273	-7.18321	1203.21777	216.39507	481.59088	1286.50012	699.58777	-39.96282	1047.73181	28.53343	573.77753	1115.84229	557.69769	303.34103	949.01544	309.69373	475.39899	1002.99524	541.29449	164.28328	1012.38049	562.84412	270.91425	520.04840	280.54510	540.05109	552.22479	507.53140	220.66167	107.50191	449.93320	278.11685	237.79681	682.61499	
251	2.500	294.19147	1466.20459	164.68196	172.66801	1622.75659	240.56311				396.35672	1552.02002	236.69948	105.89760	1450.42444	300.99594	431.40903	1521.21179	534.52307	360.22800	1338.87073	382.40356	193.78621	1546.88074	508.65402	-2.67972	1202.75464	213.09796	488.69595	1289.17151	696.46436	-38.18034	1047.77686	26.99585	580.31445	1118.53064	554.44751	308.90988	948.94257	308.03168	483.80923	1005.04626	537.22742	172.24513	1013.69733	562.99408	270.45685	519.28125	276.01627	551.51086	558.82947	496.83789	220.86145	107.68571	449.96152	301.05283	231.10501	675.61774	
252	2.510	296.98962	1465.61047	160.38860	175.92006	1622.29749	237.36719				399.85101	1551.70203	231.67479	110.29112	1449.97668	298.88403	437.37622	1523.28613	527.75305	364.83051	1339.51074	378.89139	200.87234	1547.12830	505.02905	0.97530	1202.95105	211.84370	495.72617	1292.26843	692.83881	-36.21350	1048.09839	25.06942	586.74927	1120.59863	551.40967	313.94095	949.53876	306.89557	491.19116	1006.09357	533.47894	179.97238	1014.55414	563.31677	270.14957	519.51953	271.66510	561.82190	565.59412	488.28543	221.08508	107.87642	450.02484	324.23798	223.98682	667.88617	
253	2.520	299.86688	1465.25696	155.80992	179.54820	1621.76208	233.94092				403.11075	1551.84180	225.74290	114.99706	1449.37402	296.01056	444.36661	1525.16260	523.98260	370.53641	1339.84253	375.71384	205.54826	1548.29077	501.48932	4.77147	1203.14697	209.98576	503.12448	1294.98621	689.65411	-34.69534	1048.11877	23.68748	593.04584	1122.67773	548.34094	318.59103	949.23395	305.12216	499.70819	1007.83453	529.75110	187.42593	1015.63483	563.42303	270.20496	520.14514	268.27808	571.20856	572.25726	479.67911	221.25896	108.45229	450.68732	348.39505	216.07391	659.73138	
